<?xml version="1.0" standalone="no"?>
<!DOCTYPE svg PUBLIC "-//W3C//DTD SVG 20010904//EN"
 "http://www.w3.org/TR/2001/REC-SVG-20010904/DTD/svg10.dtd">
<svg version="1.0" xmlns="http://www.w3.org/2000/svg"
 width="225.000000pt" height="225.000000pt" viewBox="0 0 225.000000 225.000000"
 preserveAspectRatio="xMidYMid meet">

<g transform="translate(0.000000,225.000000) scale(0.100000,-0.100000)"
fill="#000000" stroke="none">
<path d="M1180 2123 c-87 -60 -375 -300 -416 -348 -30 -33 -101 -91 -170 -139
-94 -64 -120 -86 -122 -107 -2 -14 3 -31 11 -37 7 -6 60 -13 123 -14 l109 -3
1 -315 c0 -173 4 -505 8 -737 l9 -423 318 0 319 0 0 645 c0 355 -4 645 -8 645
-4 0 -38 -27 -75 -60 -38 -33 -72 -60 -77 -60 -15 0 -40 43 -40 70 0 20 25 51
103 127 56 55 111 103 122 107 11 3 34 2 50 -2 28 -8 30 -12 36 -68 4 -32 7
-362 8 -731 l1 -673 122 0 121 0 -7 243 c-3 133 -11 309 -16 391 -5 89 -5 235
0 365 5 119 9 276 10 349 l0 132 104 0 c57 0 111 3 120 6 10 4 16 18 16 39 0
29 -6 36 -52 63 -29 17 -80 58 -113 91 l-60 62 -1 166 c-1 139 -3 168 -17 177
-24 18 -206 14 -218 -5 -5 -8 -9 -42 -9 -77 l0 -63 -44 30 c-24 17 -68 52 -97
79 -66 59 -113 92 -131 92 -7 0 -25 -8 -38 -17z"/>
</g>
</svg>
